Exact Audio Copy V0.99 prebeta 3 from 28. July 2007

EAC extraheringsloggfil frĺn 28. November 2007, 19:03

Terry Callier / What Color Is Love

Använd enhet  : TSSTcorpCD/DVDW SH-W162L   Adapter: 3  ID: 0

Läsmetod                 : Säker
Utnyttja accurate stream : Ja
Bekämpa ljudcache        : Ja
Använd C2 pekare         : Nej

Läs-offset-korrigering                         : 6
Läs in i Lead-In och Lead-Out                  : Nej
Fyll upp saknade offset-samplingar med tystnad : Ja
Radera inledande och eftersläpande tysta block : Nej
Nollsamplingar har använts i CRC beräkningarna : Ja
Änvänt interface                               : Installerat externt ASPI gränssnitt
Gap hantering                                  : Ej pĺvisat, alltsĺ tillagt till föregĺende spĺr

Använt output format                  : Användardefinierad kodare
Vald bitrate                          : 320 kBit/s
Kvalite                               : Hög
Lägg till ID3 taggar                  : Nej
Kommandolinjekompressor               : C:\Program\Exact Audio Copy\flac.exe
Ytterligare kommandoradsinställningar : -8 -A tukey(0.25) -A gauss(0.1875) -b 4096 -V -T "artist=%a" -T "title=%t" -T "album=%g" -T "date=%y" -T "tracknumber=%n" -T "genre=%m" %s --sector-align


TOC pĺ den extraherade CD'n

     Spĺr |   Start  |   Längd  | Startsektor | Slutsektor
    -------------------------------------------------------
       1  |  0:00.37 |  9:03.08 |       37    |    40769
       2  |  9:03.45 |  4:06.70 |    40770    |    59289
       3  | 13:10.40 |  7:21.17 |    59290    |    92381
       4  | 20:31.57 |  3:42.28 |    92382    |   109059
       5  | 24:14.10 |  4:21.25 |   109060    |   128659
       6  | 28:35.35 |  6:40.32 |   128660    |   158691
       7  | 35:15.67 |  5:29.40 |   158692    |   183406


Spĺr  1

     Filnamn I:\FLAC\Funksoulbrothers&sisters\Terry Callier - What Color Is Love (1972)\01 - Terry Callier - Dancing Girl.wav

     Peak-nivĺ 95.7 %
     Spĺrkvalité 100.0 %
     Testar CRC 33DCF0C8
     Kopiera CRC 33DCF0C8
     Kan ej verifieras som korrekt (konfidens 2)  [61AEA8A9], AccurateRip returnerade [133DF96D]
     Kopia OK

Spĺr  2

     Filnamn I:\FLAC\Funksoulbrothers&sisters\Terry Callier - What Color Is Love (1972)\02 - Terry Callier - What Color Is Love.wav

     Peak-nivĺ 100.0 %
     Spĺrkvalité 100.0 %
     Testar CRC 2DDC9349
     Kopiera CRC 2DDC9349
     Kan ej verifieras som korrekt (konfidens 2)  [431D40C4], AccurateRip returnerade [DB587046]
     Kopia OK

Spĺr  3

     Filnamn I:\FLAC\Funksoulbrothers&sisters\Terry Callier - What Color Is Love (1972)\03 - Terry Callier - You Goin' Miss Your Candyman.wav

     Peak-nivĺ 100.0 %
     Spĺrkvalité 100.0 %
     Testar CRC B6507B38
     Kopiera CRC B6507B38
     Kan ej verifieras som korrekt (konfidens 2)  [5C442A85], AccurateRip returnerade [2E16690B]
     Kopia OK

Spĺr  4

     Filnamn I:\FLAC\Funksoulbrothers&sisters\Terry Callier - What Color Is Love (1972)\04 - Terry Callier - Just As Long As We're In Love.wav

     Peak-nivĺ 90.2 %
     Spĺrkvalité 100.0 %
     Testar CRC 61586C64
     Kopiera CRC 61586C64
     Kan ej verifieras som korrekt (konfidens 2)  [9D815CDF], AccurateRip returnerade [21E2A8C5]
     Kopia OK

Spĺr  5

     Filnamn I:\FLAC\Funksoulbrothers&sisters\Terry Callier - What Color Is Love (1972)\05 - Terry Callier - Ho Tsing Mee (A Song Of The Sun).wav

     Peak-nivĺ 84.0 %
     Spĺrkvalité 99.9 %
     Testar CRC AC1DA27D
     Kopiera CRC AC1DA27D
     Kan ej verifieras som korrekt (konfidens 2)  [42E4CD48], AccurateRip returnerade [28E511F6]
     Kopia OK

Spĺr  6

     Filnamn I:\FLAC\Funksoulbrothers&sisters\Terry Callier - What Color Is Love (1972)\06 - Terry Callier - I'd Rather Be With You.wav

     Peak-nivĺ 82.7 %
     Spĺrkvalité 100.0 %
     Testar CRC 858FE606
     Kopiera CRC 858FE606
     Kan ej verifieras som korrekt (konfidens 2)  [42E1CA49], AccurateRip returnerade [175C1361]
     Kopia OK

Spĺr  7

     Filnamn I:\FLAC\Funksoulbrothers&sisters\Terry Callier - What Color Is Love (1972)\07 - Terry Callier - You Don't Care.wav

     Peak-nivĺ 85.5 %
     Spĺrkvalité 100.0 %
     Testar CRC F8B374FD
     Kopiera CRC F8B374FD
     Kan ej verifieras som korrekt (konfidens 2)  [645E4E7D], AccurateRip returnerade [804C581D]
     Kopia OK


Inga spĺr kunde verifieras som korrekta
Du kan ha en annan pressning än de(n) som finns i databasen

Inga fel uppstod

Slut pĺ status rapport